<?xml version="1.0" encoding="UTF-8"?>
<svg version="1.1" xmlns="http://www.w3.org/2000/svg" width="47" height="47">
<path d="M0 0 C5.88220048 3.50190325 10.57472749 8.96233861 12.625 15.5 C13.47742683 23.24122504 13.29510017 30.06904239 8.625 36.5 C4.25172101 41.84511876 -0.62672587 45.03615108 -7.5 45.88671875 C-16.15701199 46.17728975 -21.48858038 44.67979787 -28.125 39.25 C-33.55284541 32.61596673 -35.0699229 27.275101 -34.75 18.6171875 C-33.83242591 10.98985287 -30.18659322 6.82999023 -24.47265625 1.9453125 C-17.57992067 -2.80387217 -7.66644301 -3.3906382 0 0 Z " fill="#0194BC" transform="translate(34.375,1.5)"/>
<path d="M0 0 C0.99 0 1.98 0 3 0 C5.27862711 2.483759 7.05645631 5.23584897 9 8 C10.98 5.36 12.96 2.72 15 0 C15.99 0.33 16.98 0.66 18 1 C18 7.27 18 13.54 18 20 C16.68 20 15.36 20 14 20 C13.67 16.37 13.34 12.74 13 9 C12.01 10.32 11.02 11.64 10 13 C8.125 12.6875 8.125 12.6875 6 12 C5.34 11.01 4.68 10.02 4 9 C3.67 12.96 3.34 16.92 3 21 C2.01 21 1.02 21 0 21 C0 14.07 0 7.14 0 0 Z " fill="#EAF6F9" transform="translate(15,13)"/>
</svg>
